<svg xmlns="http://www.w3.org/2000/svg" width="19.482" height="17.317" viewBox="0 0 19.482 17.317">
  <path id="Icon_awesome-hotel" data-name="Icon awesome-hotel" d="M18.941,2.165a.541.541,0,0,0,.541-.541V.541A.541.541,0,0,0,18.941,0H.541A.541.541,0,0,0,0,.541V1.623a.541.541,0,0,0,.541.541h.54V15.153H.541A.541.541,0,0,0,0,15.694v1.082a.541.541,0,0,0,.541.541H8.659V14.611A.543.543,0,0,1,9.2,14.07h1.082a.543.543,0,0,1,.541.541v2.706h8.117a.541.541,0,0,0,.541-.541V15.694a.541.541,0,0,0-.541-.541H18.4V2.165ZM8.659,3.68a.466.466,0,0,1,.433-.433h1.3a.466.466,0,0,1,.433.433v1.3a.466.466,0,0,1-.433.433h-1.3a.466.466,0,0,1-.433-.433V3.68Zm0,3.247a.466.466,0,0,1,.433-.433h1.3a.466.466,0,0,1,.433.433v1.3a.466.466,0,0,1-.433.433h-1.3a.466.466,0,0,1-.433-.433v-1.3ZM4.329,3.68a.466.466,0,0,1,.433-.433h1.3a.466.466,0,0,1,.433.433v1.3a.466.466,0,0,1-.433.433h-1.3a.466.466,0,0,1-.433-.433ZM6.061,8.659h-1.3a.466.466,0,0,1-.433-.433v-1.3a.466.466,0,0,1,.433-.433h1.3a.466.466,0,0,1,.433.433v1.3A.466.466,0,0,1,6.061,8.659Zm.433,4.329a3.247,3.247,0,0,1,6.494,0Zm8.659-4.762a.466.466,0,0,1-.433.433h-1.3a.466.466,0,0,1-.433-.433v-1.3a.466.466,0,0,1,.433-.433h1.3a.466.466,0,0,1,.433.433Zm0-3.247a.466.466,0,0,1-.433.433h-1.3a.466.466,0,0,1-.433-.433V3.68a.466.466,0,0,1,.433-.433h1.3a.466.466,0,0,1,.433.433Z" fill="#fff"/>
</svg>
