<svg xmlns="http://www.w3.org/2000/svg" width="18.583" height="20.493" viewBox="0 0 18.583 20.493">
  <path id="Icon_simple-email" data-name="Icon simple-email" d="M20.241,9.458a10.569,10.569,0,0,1-.341,2.292,6.633,6.633,0,0,1-.891,2.013,4.7,4.7,0,0,1-1.511,1.43,4.265,4.265,0,0,1-2.206.544,3.2,3.2,0,0,1-1.6-.391,2.732,2.732,0,0,1-1.078-1.105,3.418,3.418,0,0,1-2.892,1.452A2.94,2.94,0,0,1,7.2,14.337a4.444,4.444,0,0,1-.627-1.573,6.782,6.782,0,0,1-.082-2.051A9.53,9.53,0,0,1,7.117,8.2,6.829,6.829,0,0,1,8.272,6.276,4.886,4.886,0,0,1,9.86,5.049a4.431,4.431,0,0,1,1.931-.429,6,6,0,0,1,1.155.1,4.728,4.728,0,0,1,.9.269,4.847,4.847,0,0,1,.743.392c.227.146.455.3.681.451l-.561,6.454a2.145,2.145,0,0,0,.017.756,1.057,1.057,0,0,0,.231.466.83.83,0,0,0,.374.243,1.388,1.388,0,0,0,1.314-.259,2.8,2.8,0,0,0,.7-.9,5.773,5.773,0,0,0,.474-1.347,9.244,9.244,0,0,0,.207-1.678,10.721,10.721,0,0,0-.264-3.135A6.231,6.231,0,0,0,16.6,4.009a5.387,5.387,0,0,0-2.08-1.562,7.548,7.548,0,0,0-3.03-.554,6.69,6.69,0,0,0-3,.653A6.875,6.875,0,0,0,6.22,4.357,8.69,8.69,0,0,0,4.729,7.08,12.275,12.275,0,0,0,4.1,10.474a11.285,11.285,0,0,0,.32,3.463,6.254,6.254,0,0,0,1.265,2.482A5.28,5.28,0,0,0,7.83,17.909a8.223,8.223,0,0,0,2.958.494,10.132,10.132,0,0,0,1.941-.209c.32-.064.624-.141.913-.225a6.873,6.873,0,0,0,.786-.282l.406,1.826a4.506,4.506,0,0,1-.88.435,8.468,8.468,0,0,1-1.04.3,10.146,10.146,0,0,1-2.172.243,11.39,11.39,0,0,1-3.96-.638,7.288,7.288,0,0,1-2.886-1.9,7.97,7.97,0,0,1-1.733-3.134,13.366,13.366,0,0,1-.484-4.35A13.267,13.267,0,0,1,2.514,6.3,10.332,10.332,0,0,1,4.519,2.982,9.138,9.138,0,0,1,7.578.794,9.578,9.578,0,0,1,11.54,0a10,10,0,0,1,3.839.688,7.467,7.467,0,0,1,2.771,1.934,7.936,7.936,0,0,1,1.644,2.988A11.424,11.424,0,0,1,20.241,9.458Zm-11,1.255a4.356,4.356,0,0,0,.225,2.16,1.158,1.158,0,0,0,1.114.73,1.231,1.231,0,0,0,.382-.07,1.361,1.361,0,0,0,.439-.264,2.344,2.344,0,0,0,.446-.538,4.128,4.128,0,0,0,.41-.909L12.7,6.808a2.617,2.617,0,0,0-.681-.09,2.356,2.356,0,0,0-1.133.26,2.244,2.244,0,0,0-.8.763A4.482,4.482,0,0,0,9.546,9a10.646,10.646,0,0,0-.3,1.716Z" transform="translate(-1.67)" fill="#fff"/>
</svg>
