<svg xmlns="http://www.w3.org/2000/svg" width="15.73" height="15.73" viewBox="0 0 15.73 15.73">
  <path id="Icon_awesome-phone-alt" data-name="Icon awesome-phone-alt" d="M15.282,11.116,11.841,9.641a.737.737,0,0,0-.86.212L9.456,11.715A11.388,11.388,0,0,1,4.012,6.271L5.874,4.747a.736.736,0,0,0,.212-.86L4.612.446A.742.742,0,0,0,3.767.019L.571.756A.737.737,0,0,0,0,1.475,14.254,14.254,0,0,0,14.256,15.731a.737.737,0,0,0,.719-.571l.737-3.2a.746.746,0,0,0-.43-.848Z" transform="translate(0 0)" fill="#fff"/>
</svg>
